<svg xmlns="http://www.w3.org/2000/svg" viewBox="3579 474 762 132" role="img" aria-label="Pulso Científico">
<defs>
    <style>
      .cls-1, .cls-2 {
        fill: #09ae7c;
      }

      .cls-3, .cls-4 {
        fill: #fff;
      }

      .cls-5, .cls-4, .cls-2, .cls-6, .cls-7, .cls-8, .cls-9 {
        fill-rule: evenodd;
      }

      .cls-5, .cls-10 {
        fill: #112e50;
      }

      .cls-6 {
        fill: #112d50;
      }

      .cls-7 {
        fill: #122f52;
      }

      .cls-8 {
        fill: #122e51;
      }

      .cls-9 {
        fill: #133054;
      }
    </style>
  </defs>

<g>
    <g>
      <path class="cls-2" d="M3753.94,528.69c16.26-4.71,23.91,18.72,7.59,23.47-7.25,2.13-15.08-2.23-16.65-8.08-2.17-8.05,3.34-13.72,9.07-15.39h0ZM3744.58,563.16c5.06,1.45,6.98,2.64,13.46,2.58,4.86-.04,9.41-1.03,13.11-3.11,27.39-15.42,8.32-55.63-21.82-46.42-8.23,2.52-13.78,8.11-16.76,15.44-2.63,6.47-1.54,22.41-1.52,30.56,0,5.36.04,10.75-.01,16.1-.04,5.4.88,9.39,6.28,9.65,9.97.5,6.7-13.6,7.26-24.81h0Z"/>
      <path class="cls-8" d="M4042.3,535.7c2.74-8.23,18.89-10.06,22.81.01h-22.81ZM4042.22,546.88c5.55.01,29.59.7,32.79-.86,4.17-2.04,4.24-7.22,2.34-12.57-8.72-24.53-42.83-21.01-48.94,2.32-2.64,10.09,2.52,19.97,7.54,24.28,14.05,12.03,35.55,4.61,37.52-.77,1.69-4.6-3.59-9.32-7.76-8.71-1.96.29-3.79,1.98-5.84,2.75-6.59,2.49-15.67-.14-17.66-6.44h0Z"/>
      <path class="cls-2" d="M3917.79,541.88c-.61-7.02,5.12-12.84,11.38-13.57,7.4-.88,13.6,4.82,14.35,11.05,1.98,16.45-24.38,18.2-25.73,2.52h0ZM3926.7,515.47c-13.44,2.16-24.33,13.26-22.27,29.02,1.74,13.33,14.72,23.32,30.28,21.25,13.27-1.77,24.42-13.46,21.99-28.89-2.04-12.93-14.54-23.88-29.99-21.39h0Z"/>
      <path class="cls-8" d="M4292,542.59c-1.43-15.56,23.75-18.37,25.47-1.96.71,6.72-5.7,12.34-11.7,12.9-7.06.65-13.18-4.5-13.77-10.94h0ZM4299.83,516.92c-12.94,2.27-23.7,14-20.75,29.53,5.92,31.09,56.86,24.23,51.3-9.71-2.07-12.54-15.17-22.51-30.55-19.81h0Z"/>
      <path class="cls-2" d="M3876.16,515.39c-20.56,2.4-22.31,24.89-5.26,30.16,4.77,1.48,13.78-.05,16.71,2.73,2.53,2.41-.11,4.49-2.77,5.16-6.17,1.59-11.28-.55-16.2-2.73-5.86-2.58-10.69,3.39-8.89,8.03,2.16,5.58,16.23,7.61,22.39,7.38,11.49-.41,21.66-6.64,19.64-18.88-2.49-15.09-20.59-12.13-25.37-13.63-4.75-1.49-4.26-7.49,7.66-6.02,6.1.76,9.21,5.49,14.42.54,1.6-1.5,2.56-4.44.94-6.95-3.48-5.39-16.71-6.58-23.28-5.81h0Z"/>
      <path class="cls-2" d="M3792.88,515.93c-5.37,1.6-5.18,5.69-5.15,11.54.01,5.13-.42,11.89.08,16.81.95,9.39,7.22,16.8,14.31,19.58,9.13,3.58,20.4,1.66,26.25-4.17,7.88-7.84,7.68-12.54,7.66-26.3,0-4.65.94-11.72-1.4-15.17-2.77-4.08-8.74-3.36-11.18.53-3.9,6.24,2.17,23.92-3.76,30.13-2.8,2.93-7.24,4.91-12.28,2.5-8.33-3.97-5.52-15.19-5.84-28.17-.12-4.85-3.47-8.84-8.69-7.29h0Z"/>
      <path class="cls-5" d="M4100.81,516.96c-9.1,1.54-15.73,6.92-18.19,14.64-1.58,4.98-1.15,9.41-1.13,14.81.01,3.65-.58,13.04.71,15.66,1.98,4.03,7.5,4.95,10.78,1.48,4.73-5.02-.92-22.96,3.33-29.72,4.39-7,17.59-5.69,17.76,6.21.1,6.16-1.04,20.04,1.39,23.1,1.1,1.4,2.94,2.76,5.73,2.61,6.89-.38,6.2-7.16,6.18-10.43-.04-10.58,1.53-20.68-3.65-28.79-3.7-5.8-12.54-11.3-22.91-9.55h0Z"/>
      <path class="cls-8" d="M3982.75,517.03c-18.19,3.37-27.86,24-15.24,40.27,7.47,9.62,24.71,12.52,36.55,5.02,5.16-3.27,1.89-7.54-1.12-10.37-4.12-3.89-7.32,1.03-12.09,1.85-15.68,2.65-21.96-19.56-6.32-24.17,6.15-1.8,8.69.62,12.99,2.34,4.09,1.65,9.15-3.25,9.27-6.34.31-7.79-16.25-10.05-24.05-8.6h0Z"/>
      <path class="cls-8" d="M4255.81,516.93c-32.02,5.58-27.53,50.64,5.58,49.69,8.87-.25,23.02-5.37,14.28-13.74-7.62-7.29-11.01,7.23-23.98-1.86-6.3-4.42-6.62-15.96,3.07-20.56,9.98-4.74,13.88,4.9,19.51.89,1.03-.74,3.57-3.05,3.99-4.57,2.27-8.21-15.32-11.09-22.45-9.85h0Z"/>
      <path class="cls-6" d="M4195.08,531.81c6.6-.24,16.8,1.95,16.58-6.16-.23-8.27-10.88-5.13-16.68-5.88,0-12.45,8.15-9.98,12.09-10.78,6.39-1.31,7.16-11.58-2.02-11.98-15.14-.67-23.38,8.85-23.28,23.57.05,7.6-.04,15.25-.07,22.87-.02,5.81-1.44,18.2,2.41,20.93,2.33,1.63,6,1.85,8.38,0,4.79-3.73.83-22.06,2.58-32.56h0Z"/>
      <path class="cls-8" d="M4145.28,530.63c5.8-.31,13.7,1.18,13.8-5.84.12-7.9-9.75-5.97-13.66-6.09-.74-6.64,1.84-14.1-4.83-15.91-3.55-.97-6.59.8-7.61,2.87-1.31,2.68-.86,6.59-.86,9.81,0,9.53-1.32,32.9,1.75,40.27,4.86,11.67,26.26,14.17,25.11,3.37-.88-8.31-10.05-3.89-12.73-8.15-1.87-3-.85-15.83-.96-20.34h0Z"/>
      <path class="cls-2" d="M3841.21,502.07v54.21c-.02,4.84,1.77,9.11,7.05,8.93,8.05-.26,6.57-10.12,6.57-18.25v-43.64c.02-4.83-1.27-8.49-6.16-8.9-5.1-.43-7.43,2.87-7.46,7.64h0Z"/>
      <path class="cls-6" d="M4167.31,518.26c-5.04,1.34-4.96,4.74-4.92,10.36.02,5.08,0,10.16,0,15.25-.01,4.88-.24,10.42.01,15.23.22,4.2,3.77,7.78,8.69,6.42,4.54-1.25,4.57-5.68,4.56-10.64-.04-7.92.32-23.63-.06-30.43-.24-4.19-3.53-7.47-8.29-6.2h0Z"/>
      <path class="cls-8" d="M4221.61,518.3c-5.06,1.51-4.79,5.13-4.8,10.73l.02,30.51c.34,4.01,4.12,7.44,8.57,5.98,4.73-1.55,4.6-5.1,4.6-10.65,0-8.31.34-23.08-.01-30.52-.2-4.3-3.71-7.46-8.38-6.05h0Z"/>
      <path class="cls-6" d="M4015.03,518.41c-5.2,1.87-4.42,5.03-4.45,11.05-.05,5.08.01,10.17,0,15.25-.01,4.23-.43,11.32.06,15.2.54,4.29,4.35,7.02,8.8,5.48,4.38-1.51,4.32-5.84,4.3-10.93l-.06-30.49c-.35-4.11-4.18-7.17-8.65-5.56h0Z"/>
      <path class="cls-7" d="M4175.61,492.69c-2.91,1.39-8.42,7.73-10.76,10.13-.96.98-4.21,3.12-1.78,7.16,1.1,1.83,4.61,3.85,7.59,2.04l10.79-9.97c5.91-5.8-.25-12.03-5.85-9.37h0Z"/>
      <path class="cls-8" d="M4221,499.13c-8.47,3.19-4.88,17.16,4.88,13.86,9.14-3.1,4.31-17.31-4.88-13.86h0Z"/>
      <path class="cls-9" d="M4014.91,499.27c-2.28.84-3.15,1.33-4.12,3.29-3.27,6.6,2.79,12.38,8.72,10.39,8.99-3.03,4.44-17.03-4.6-13.68h0Z"/>
    </g>
    <path class="cls-2" d="M3616.8,545.67h-12.18c-2.16,0-5.8.45-6.51-3.14-.28-1.42.38-2.73,1.07-3.49,1.49-1.63,4.93-1.21,7.14-1.21h7.71c6.25.01,5.44-.21,7.51-5.27,1.8-4.39,4.01-9.38,5.7-13.73.55-1.4,1.25-3.33,1.88-4.59,1.46-2.94,5.36-4.46,8.35-1.83,1.16,1.01,1.53,2.31,2.06,4.25l4.3,15.12c.94,3.44,1.86,6.7,2.84,10.13.95,3.35,1.79,6.83,2.81,10.13.44-.48,3.58-8.78,4.05-10.01.92-2.43,2.82-8.24,4.38-9.8,2.64-2.64,6.75-2.08,8.84,2.26.76,1.58,1.64,3.13,2.41,4.68,1.28,2.57,3.01,2.17,6.41,2.17h10.33c2.04,0,6.36-.36,6.38,3.92,0,1.67-.9,2.71-1.85,3.3-1.62,1-6.96.62-9.31.61h-10.02c-6.7.03-8.15-6.1-9.16-6.72-2.21,5.7-4.45,11.41-6.66,17.22-1.16,3.05-1.84,6.25-4.44,7.42-3.17,1.42-6.14-.31-7.14-4.13-2.36-9.03-5.26-18.86-7.83-27.96-.41-1.43-2.26-8.51-2.7-9.31-.36.39-.49.87-.73,1.42l-4.73,11.32c-1.03,2.55-1.88,4.13-3.63,5.46-2.12,1.61-4.06,1.78-7.26,1.79h0ZM3615.24,484.12c-7.18.4-13.22,3.29-17.99,8.13-2.57,2.6-4.75,5.45-6.22,9.51-1.62,4.46-1.72,7.22-1.7,12.36.02,9.3,0,18.61,0,27.91,0,9.23-.28,18.89.02,28.07.28,8.53,4.69,15.55,10.95,20.36,1.85,1.42,4.5,2.9,6.75,3.74,4.39,1.64,7.16,1.74,12.23,1.75h41.94c4.61.01,9.45.14,14.03-.03,8.45-.31,14.99-5.03,18.76-9.08,2.04-2.19,4.03-5.14,5.3-8.57,1.62-4.35,1.67-7.32,1.67-12.34v-41.94c0-4.6.15-9.47-.02-14.04-.41-10.86-7.89-20.47-17.65-24.09-4.31-1.6-7.21-1.76-12.22-1.77h-41.94c-4.48,0-9.5-.21-13.9.03h0Z"/>
  </g>
</svg>
